<?xml version="1.0" encoding="UTF-8"?>
<svg id="Layer_1" xmlns="http://www.w3.org/2000/svg" version="1.1" xmlns:xlink="http://www.w3.org/1999/xlink" viewBox="0 0 48 48">
  <!-- Generator: Adobe Illustrator 30.1.0, SVG Export Plug-In . SVG Version: 2.1.1 Build 136)  -->
  <defs>
    <style>
      .st0 {
        fill: #199be2;
      }

      .st1 {
        fill: #35c1f1;
      }

      .st2 {
        fill: url(#linear-gradient);
      }
    </style>
    <linearGradient id="linear-gradient" x1="5.3" y1="44.7" x2="38.1" y2="11.9" gradientTransform="translate(0 50) scale(1 -1)" gradientUnits="userSpaceOnUse">
      <stop offset="0" stop-color="#fed100"/>
      <stop offset="1" stop-color="#e36001"/>
    </linearGradient>
  </defs>
  <path class="st2" d="M24,4C13,4,4,13,4,24s9,20,20,20,20-9,20-20S35,4,24,4Z"/>
  <path class="st0" d="M5.7,32h-1.7c-1.1,0-2,.9-2,2s.9,2,2,2h3c1.1,0,2,.9,2,2s-.9,2-2,2-2,.9-2,2,.9,2,2,2h17c-8.2,0-15.2-4.9-18.3-12Z"/>
  <path class="st0" d="M42,40h-6c-3.3,2.5-7.5,4-12,4h18c.8,0,1.5-.5,1.8-1.2h0c0-.1.1-.3.1-.4,0,0,0,0,0,0,0-.1,0-.3,0-.4,0-1.1-.9-2-2-2Z"/>
  <path class="st1" d="M30,40c-1.1,0-2-.9-2-2s.9-2,2-2h6c1.1,0,2-.9,2-2s-.9-2-2-2h-16c-1.1,0-2-.9-2-2s.9-2,2-2h2c1.1,0,2-.9,2-2h0c0-1.1-.9-2-2-2h-14c-1.1,0-2,.9-2,2s.9,2,2,2h0s2,0,2,0c1.1,0,2,.9,2,2s-.9,2-2,2h-4.3c3.1,7.1,10.1,12,18.3,12s8.6-1.5,12-4h-6Z"/>
</svg>