<?xml version="1.0" encoding="UTF-8"?>
<svg id="Layer_1" xmlns="http://www.w3.org/2000/svg" version="1.1" xmlns:xlink="http://www.w3.org/1999/xlink" viewBox="0 0 48 48">
  <!-- Generator: Adobe Illustrator 30.1.0, SVG Export Plug-In . SVG Version: 2.1.1 Build 136)  -->
  <defs>
    <style>
      .st0 {
        fill: #199be2;
      }

      .st1 {
        fill: url(#linear-gradient1);
      }

      .st2 {
        fill: #0078d4;
      }

      .st3 {
        fill: #35c1f1;
      }

      .st4 {
        fill: url(#linear-gradient);
      }
    </style>
    <linearGradient id="linear-gradient" x1="4.6" y1="1033.4" x2="22.7" y2="1051.5" gradientTransform="translate(0 -1030)" gradientUnits="userSpaceOnUse">
      <stop offset="0" stop-color="#fed100"/>
      <stop offset="1" stop-color="#e36001"/>
    </linearGradient>
    <linearGradient id="linear-gradient1" x1="21.2" y1="1041.8" x2="25.5" y2="1067.2" gradientTransform="translate(0 -1030)" gradientUnits="userSpaceOnUse">
      <stop offset="0" stop-color="#fcfcfc"/>
      <stop offset="1" stop-color="#c3c9cd"/>
    </linearGradient>
  </defs>
  <path class="st4" d="M14.9,2.7C8.8,2.7,3.9,7.6,3.9,13.7s4.9,11,11,11,11-4.9,11-11S21,2.7,14.9,2.7Z"/>
  <path class="st1" d="M33.9,16.7h-1c-2.3-3.1-5.9-5-10-5s-10.5,3.8-12,9.1c-3.9.5-7,3.9-7,7.9s3.6,8,8,8h22c5.5,0,10-4.5,10-10s-4.5-10-10-10Z"/>
  <g>
    <path class="st3" d="M31.4,31.5h-6.9c-.6,0-1.1-.5-1.1-1.1s.5-1.1,1.1-1.1h6.9c.9,0,1.6-.7,1.6-1.6s-.7-1.6-1.6-1.6-1.2.3-1.4.9c-.3.5-.9.7-1.4.5-.5-.3-.7-.9-.5-1.4.6-1.3,1.9-2.1,3.3-2.1,2,0,3.7,1.7,3.7,3.7s-1.7,3.7-3.7,3.7Z"/>
    <path class="st0" d="M38.8,44.2c-2,0-3.9-1.1-4.8-3-.3-.5,0-1.2.5-1.4.5-.3,1.2,0,1.4.5.5,1.1,1.6,1.8,2.9,1.8,1.8,0,3.2-1.4,3.2-3.2s-1.4-3.2-3.2-3.2h-16.5c-.6,0-1.1-.5-1.1-1.1s.5-1.1,1.1-1.1h16.5c2.9,0,5.3,2.4,5.3,5.3s-2.4,5.3-5.3,5.3Z"/>
    <path class="st2" d="M27.6,45.3c-1.4,0-2.7-.8-3.3-2.1-.3-.5,0-1.2.5-1.4.5-.3,1.2,0,1.4.5.3.6.8.9,1.4.9.9,0,1.6-.7,1.6-1.6s-.7-1.6-1.6-1.6h-6.9c-.6,0-1.1-.5-1.1-1.1s.5-1.1,1.1-1.1h6.9c2,0,3.7,1.7,3.7,3.7s-1.7,3.7-3.7,3.7Z"/>
  </g>
</svg>