<?xml version="1.0" encoding="UTF-8"?>
<svg id="Layer_1" xmlns="http://www.w3.org/2000/svg" version="1.1" xmlns:xlink="http://www.w3.org/1999/xlink" viewBox="0 0 48 48">
  <!-- Generator: Adobe Illustrator 30.1.0, SVG Export Plug-In . SVG Version: 2.1.1 Build 136)  -->
  <defs>
    <style>
      .st0 {
        fill: #199be2;
      }

      .st1 {
        fill: url(#linear-gradient1);
      }

      .st2 {
        fill: #0078d4;
      }

      .st3 {
        fill: #35c1f1;
      }

      .st4 {
        fill: url(#linear-gradient);
      }
    </style>
    <linearGradient id="linear-gradient" x1="4.5" y1="1035.5" x2="17.6" y2="1048.6" gradientTransform="translate(0 -1030)" gradientUnits="userSpaceOnUse">
      <stop offset="0" stop-color="#fed100"/>
      <stop offset="1" stop-color="#e36001"/>
    </linearGradient>
    <linearGradient id="linear-gradient1" x1="21.3" y1="1039.1" x2="25.6" y2="1064.5" gradientTransform="translate(0 -1030)" gradientUnits="userSpaceOnUse">
      <stop offset="0" stop-color="#fcfcfc"/>
      <stop offset="1" stop-color="#c3c9cd"/>
    </linearGradient>
  </defs>
  <path class="st4" d="M12,5c-4.4,0-8,3.6-8,8s3.6,8,8,8,8-3.6,8-8-3.6-8-8-8Z"/>
  <g>
    <path class="st1" d="M34,14h-1c-2.3-3.1-5.9-5-10-5s-10.5,3.8-12,9.1c-3.9.5-7,3.9-7,7.9s3.6,8,8,8h22c5.5,0,10-4.5,10-10s-4.5-10-10-10Z"/>
    <path class="st3" d="M25.1,27.6l-1-.6,1-.6c.5-.3.7-.9.4-1.4s-.9-.7-1.4-.4l-1.1.6v-1.2c0-.6-.4-1-1-1s-1,.4-1,1v1.2l-1.1-.6c-.5-.2-1.2,0-1.4.4s0,1.1.4,1.4l1,.6-1,.6c-.5.3-.7.9-.4,1.4.2.3.6.5.9.5s.3,0,.5,0l1.1-.6v1.2c0,.6.4,1,1,1s1-.4,1-1v-1.2l1.1.6c.2,0,.3,0,.5,0,.4,0,.7-.2.9-.5.2-.5,0-1.1-.4-1.4Z"/>
    <path class="st2" d="M20.1,44.6l-1-.6,1-.6c.5-.3.7-.9.4-1.4s-.9-.7-1.4-.4l-1.1.6v-1.2c0-.6-.4-1-1-1s-1,.4-1,1v1.2l-1.1-.6c-.5-.2-1.2,0-1.4.4s0,1.1.4,1.4l1,.6-1,.6c-.5.3-.7.9-.4,1.4.2.3.6.5.9.5s.3,0,.5,0l1.1-.6v1.2c0,.6.4,1,1,1s1-.4,1-1v-1.2l1.1.6c.2,0,.3,0,.5,0,.4,0,.7-.2.9-.5.2-.5,0-1.1-.4-1.4Z"/>
    <path class="st0" d="M35.1,40.6l-1-.6,1-.6c.5-.3.7-.9.4-1.4s-.9-.7-1.4-.4l-1.1.6v-1.2c0-.6-.4-1-1-1s-1,.4-1,1v1.2l-1.1-.6c-.5-.2-1.2,0-1.4.4s0,1.1.4,1.4l1,.6-1,.6c-.5.3-.7.9-.4,1.4.2.3.6.5.9.5s.3,0,.5,0l1.1-.6v1.2c0,.6.4,1,1,1s1-.4,1-1v-1.2l1.1.6c.2,0,.3,0,.5,0,.4,0,.7-.2.9-.5.2-.5,0-1.1-.4-1.4Z"/>
  </g>
</svg>