<?xml version="1.0" encoding="UTF-8"?>
<svg id="Layer_1" xmlns="http://www.w3.org/2000/svg" version="1.1" xmlns:xlink="http://www.w3.org/1999/xlink" viewBox="0 0 48 48">
  <!-- Generator: Adobe Illustrator 30.1.0, SVG Export Plug-In . SVG Version: 2.1.1 Build 136)  -->
  <defs>
    <style>
      .st0 {
        fill: url(#linear-gradient2);
      }

      .st1 {
        fill: url(#linear-gradient1);
      }

      .st2 {
        fill: url(#linear-gradient8);
      }

      .st3 {
        fill: url(#linear-gradient7);
      }

      .st4 {
        fill: url(#linear-gradient4);
      }

      .st5 {
        fill: url(#linear-gradient5);
      }

      .st6 {
        fill: url(#linear-gradient3);
      }

      .st7 {
        fill: url(#linear-gradient6);
      }

      .st8 {
        fill: url(#linear-gradient);
      }
    </style>
    <linearGradient id="linear-gradient" x1="21.3" y1="43.9" x2="25.6" y2="18.5" gradientTransform="translate(0 50) scale(1 -1)" gradientUnits="userSpaceOnUse">
      <stop offset="0" stop-color="#fcfcfc"/>
      <stop offset="1" stop-color="#c3c9cd"/>
    </linearGradient>
    <linearGradient id="linear-gradient1" x1="20.1" y1="16.4" x2="20.7" y2="11.9" gradientTransform="translate(0 50) scale(1 -1)" gradientUnits="userSpaceOnUse">
      <stop offset="0" stop-color="#2aa4f4"/>
      <stop offset=".6" stop-color="#0f80e3"/>
      <stop offset="1" stop-color="#006dd9"/>
    </linearGradient>
    <linearGradient id="linear-gradient2" x1="18.7" y1="9" x2="19.1" y2="6" gradientTransform="translate(0 50) scale(1 -1)" gradientUnits="userSpaceOnUse">
      <stop offset="0" stop-color="#2aa4f4"/>
      <stop offset=".6" stop-color="#0f80e3"/>
      <stop offset="1" stop-color="#006dd9"/>
    </linearGradient>
    <linearGradient id="linear-gradient3" x1="34.1" y1="16.4" x2="34.7" y2="11.9" gradientTransform="translate(0 50) scale(1 -1)" gradientUnits="userSpaceOnUse">
      <stop offset="0" stop-color="#2aa4f4"/>
      <stop offset=".6" stop-color="#0f80e3"/>
      <stop offset="1" stop-color="#006dd9"/>
    </linearGradient>
    <linearGradient id="linear-gradient4" x1="32.7" y1="9" x2="33.1" y2="6" gradientTransform="translate(0 50) scale(1 -1)" gradientUnits="userSpaceOnUse">
      <stop offset="0" stop-color="#2aa4f4"/>
      <stop offset=".6" stop-color="#0f80e3"/>
      <stop offset="1" stop-color="#006dd9"/>
    </linearGradient>
    <linearGradient id="linear-gradient5" x1="13.7" y1="16" x2="14.1" y2="13" gradientTransform="translate(0 50) scale(1 -1)" gradientUnits="userSpaceOnUse">
      <stop offset="0" stop-color="#2aa4f4"/>
      <stop offset=".6" stop-color="#0f80e3"/>
      <stop offset="1" stop-color="#006dd9"/>
    </linearGradient>
    <linearGradient id="linear-gradient6" x1="12.1" y1="9.4" x2="12.7" y2="4.9" gradientTransform="translate(0 50) scale(1 -1)" gradientUnits="userSpaceOnUse">
      <stop offset="0" stop-color="#2aa4f4"/>
      <stop offset=".6" stop-color="#0f80e3"/>
      <stop offset="1" stop-color="#006dd9"/>
    </linearGradient>
    <linearGradient id="linear-gradient7" x1="27.7" y1="16" x2="28.1" y2="13" gradientTransform="translate(0 50) scale(1 -1)" gradientUnits="userSpaceOnUse">
      <stop offset="0" stop-color="#2aa4f4"/>
      <stop offset=".6" stop-color="#0f80e3"/>
      <stop offset="1" stop-color="#006dd9"/>
    </linearGradient>
    <linearGradient id="linear-gradient8" x1="26.1" y1="9.4" x2="26.7" y2="4.9" gradientTransform="translate(0 50) scale(1 -1)" gradientUnits="userSpaceOnUse">
      <stop offset="0" stop-color="#2aa4f4"/>
      <stop offset=".6" stop-color="#0f80e3"/>
      <stop offset="1" stop-color="#006dd9"/>
    </linearGradient>
  </defs>
  <path class="st8" d="M34,11c-.3,0-.7,0-1,0-2.3-3.1-5.9-5-10-5s-10.5,3.8-12,9.1c-3.9.5-7,3.9-7,7.9s3.6,8,8,8h22c5.5,0,10-4.5,10-10s-4.5-10-10-10Z"/>
  <path class="st1" d="M22,36.5c0,.8-.7,1.5-1.5,1.5s-1.5-.7-1.5-1.5,1-2.4,1.4-2.9c0,0,.2,0,.2,0,.4.6,1.4,2.2,1.4,2.9Z"/>
  <path class="st0" d="M20,43c0,.6-.4,1-1,1s-1-.4-1-1,.7-1.6.9-2c0,0,.1,0,.2,0,.2.4.9,1.5.9,2Z"/>
  <path class="st6" d="M36,36.5c0,.8-.7,1.5-1.5,1.5s-1.5-.7-1.5-1.5,1-2.4,1.4-2.9c0,0,.2,0,.2,0,.4.6,1.4,2.2,1.4,2.9Z"/>
  <path class="st4" d="M34,43c0,.6-.4,1-1,1s-1-.4-1-1,.7-1.6.9-2c0,0,.1,0,.2,0,.2.4.9,1.5.9,2Z"/>
  <path class="st5" d="M15,36c0,.6-.4,1-1,1s-1-.4-1-1,.7-1.6.9-2c0,0,.1,0,.2,0,.2.4.9,1.5.9,2Z"/>
  <path class="st7" d="M14,43.5c0,.8-.7,1.5-1.5,1.5s-1.5-.7-1.5-1.5,1-2.4,1.4-2.9c0,0,.2,0,.2,0,.4.6,1.4,2.2,1.4,2.9Z"/>
  <path class="st3" d="M29,36c0,.6-.4,1-1,1s-1-.4-1-1,.7-1.6.9-2c0,0,.1,0,.2,0,.2.4.9,1.5.9,2Z"/>
  <path class="st2" d="M28,43.5c0,.8-.7,1.5-1.5,1.5s-1.5-.7-1.5-1.5,1-2.4,1.4-2.9c0,0,.2,0,.2,0,.4.6,1.4,2.2,1.4,2.9Z"/>
</svg>