<?xml version="1.0" encoding="UTF-8"?>
<svg id="Layer_1" xmlns="http://www.w3.org/2000/svg" version="1.1" xmlns:xlink="http://www.w3.org/1999/xlink" viewBox="0 0 48 48">
  <!-- Generator: Adobe Illustrator 30.1.0, SVG Export Plug-In . SVG Version: 2.1.1 Build 136)  -->
  <defs>
    <style>
      .st0 {
        fill: url(#linear-gradient2);
      }

      .st1 {
        fill: url(#linear-gradient1);
      }

      .st2 {
        fill: url(#linear-gradient);
      }
    </style>
    <linearGradient id="linear-gradient" x1="21.3" y1="43.9" x2="25.6" y2="18.5" gradientTransform="translate(0 50) scale(1 -1)" gradientUnits="userSpaceOnUse">
      <stop offset="0" stop-color="#fcfcfc"/>
      <stop offset="1" stop-color="#c3c9cd"/>
    </linearGradient>
    <linearGradient id="linear-gradient1" x1="32" y1="29.1" x2="32" y2="9.4" gradientTransform="translate(0 50) scale(1 -1)" gradientUnits="userSpaceOnUse">
      <stop offset="0" stop-color="#f19900"/>
      <stop offset="1" stop-color="#e36001"/>
    </linearGradient>
    <linearGradient id="linear-gradient2" x1="20" y1="34.1" x2="20" y2="14.4" gradientTransform="translate(0 50) scale(1 -1)" gradientUnits="userSpaceOnUse">
      <stop offset="0" stop-color="#f19900"/>
      <stop offset="1" stop-color="#e36001"/>
    </linearGradient>
  </defs>
  <path class="st2" d="M34,11c-.3,0-.7,0-1,0-2.3-3.1-5.9-5-10-5s-10.5,3.8-12,9.1c-3.9.5-7,3.9-7,7.9s3.6,8,8,8h22c5.5,0,10-4.5,10-10s-4.5-10-10-10Z"/>
  <path class="st1" d="M32,39.6v-6.6h-4.5c-.7,0-1.2-.7-.9-1.4l4.4-10.3c.2-.5,1-.4,1,.2v7.5h4.4c.7,0,1.2.8.9,1.4l-4.4,9.4c-.2.5-1,.3-1-.2Z"/>
  <path class="st0" d="M20,34.6v-6.6h-4.5c-.7,0-1.2-.7-.9-1.4l4.4-10.3c.2-.5,1-.4,1,.2v7.5h4.4c.7,0,1.2.8.9,1.4l-4.4,9.4c-.2.5-1,.3-1-.2Z"/>
</svg>