<?xml version="1.0" encoding="UTF-8"?>
<svg id="Layer_1" xmlns="http://www.w3.org/2000/svg" version="1.1" xmlns:xlink="http://www.w3.org/1999/xlink" viewBox="0 0 48 48">
  <!-- Generator: Adobe Illustrator 30.1.0, SVG Export Plug-In . SVG Version: 2.1.1 Build 136)  -->
  <defs>
    <style>
      .st0 {
        fill: url(#linear-gradient2);
      }

      .st1 {
        fill: url(#linear-gradient1);
      }

      .st2 {
        fill: url(#linear-gradient3);
      }

      .st3 {
        fill: url(#linear-gradient);
      }
    </style>
    <linearGradient id="linear-gradient" x1="4.7" y1="1035.7" x2="22.7" y2="1053.7" gradientTransform="translate(0 -1030)" gradientUnits="userSpaceOnUse">
      <stop offset="0" stop-color="#fed100"/>
      <stop offset="1" stop-color="#e36001"/>
    </linearGradient>
    <linearGradient id="linear-gradient1" x1="21.3" y1="35.9" x2="25.6" y2="10.5" gradientTransform="translate(0 50) scale(1 -1)" gradientUnits="userSpaceOnUse">
      <stop offset="0" stop-color="#fcfcfc"/>
      <stop offset="1" stop-color="#c3c9cd"/>
    </linearGradient>
    <linearGradient id="linear-gradient2" x1="26" y1="44.5" x2="29" y2="44.5" gradientUnits="userSpaceOnUse">
      <stop offset="0" stop-color="#006dd9"/>
      <stop offset=".4" stop-color="#0f80e3"/>
      <stop offset="1" stop-color="#2aa4f4"/>
    </linearGradient>
    <linearGradient id="linear-gradient3" x1="14" y1="45.5" x2="19" y2="45.5" xlink:href="#linear-gradient2"/>
  </defs>
  <path class="st3" d="M15,5c-6.1,0-11,5-11,11s4.9,11,11,11,11-5,11-11-5-11-11-11Z"/>
  <path class="st1" d="M34,19c-.3,0-.7,0-1,0-2.3-3.1-5.9-5-10-5s-10.5,3.8-12,9.1c-3.9.5-7,3.9-7,7.9s3.6,8,8,8h22c5.5,0,10-4.5,10-10s-4.5-10-10-10Z"/>
  <path class="st0" d="M28,45.6c-.5.5-1.2.5-1.7,0s-.5-1.2,0-1.7c.5-.5,2.6-1,2.6-1,0,0-.5,2.2-1,2.6Z"/>
  <path class="st2" d="M17.4,47.4c-.8.8-2,.8-2.8,0s-.8-2,0-2.8c.8-.8,4.4-1.6,4.4-1.6,0,0-.8,3.6-1.6,4.4Z"/>
</svg>