<?xml version="1.0" encoding="UTF-8"?>
<svg id="Layer_1" xmlns="http://www.w3.org/2000/svg" version="1.1" xmlns:xlink="http://www.w3.org/1999/xlink" viewBox="0 0 48 48">
  <!-- Generator: Adobe Illustrator 30.1.0, SVG Export Plug-In . SVG Version: 2.1.1 Build 136)  -->
  <defs>
    <style>
      .st0 {
        fill: #199be2;
      }

      .st1 {
        fill: url(#linear-gradient1);
      }

      .st2 {
        fill: #35c1f1;
      }

      .st3 {
        fill: url(#linear-gradient);
      }
    </style>
    <linearGradient id="linear-gradient" x1="21.3" y1="1036.1" x2="25.6" y2="1061.5" gradientTransform="translate(0 -1030)" gradientUnits="userSpaceOnUse">
      <stop offset="0" stop-color="#fcfcfc"/>
      <stop offset="1" stop-color="#c3c9cd"/>
    </linearGradient>
    <linearGradient id="linear-gradient1" x1="24.9" y1="1050.9" x2="24.9" y2="1070.6" gradientTransform="translate(0 -1030)" gradientUnits="userSpaceOnUse">
      <stop offset="0" stop-color="#f19900"/>
      <stop offset="1" stop-color="#e36001"/>
    </linearGradient>
  </defs>
  <path class="st3" d="M34,11h-1c-2.3-3.1-5.9-5-10-5s-10.5,3.8-12,9.1c-3.9.5-7,3.9-7,7.9s3.6,8,8,8h22c5.5,0,10-4.5,10-10s-4.5-10-10-10Z"/>
  <path class="st1" d="M25,39.6v-6.6h-4.5c-.7,0-1.2-.7-.9-1.4l4.4-10.3c.2-.5,1-.4,1,.2v7.5h4.4c.7,0,1.2.8.9,1.4l-4.4,9.4c-.2.5-1,.3-1-.2h.1Z"/>
  <path class="st2" d="M37,42.3c-.6,0-1-.4-1-1v-6c0-.6.4-1,1-1s1,.4,1,1v6c0,.6-.4,1-1,1Z"/>
  <path class="st2" d="M34.4,40.8c-.3,0-.7-.2-.9-.5-.3-.5,0-1.1.4-1.4l5.2-3c.5-.3,1.1,0,1.4.4.3.5,0,1.1-.4,1.4l-5.2,3c-.2,0-.3,0-.5,0Z"/>
  <path class="st2" d="M39.6,40.8c-.2,0-.3,0-.5,0l-5.2-3c-.5-.3-.6-.9-.4-1.4.3-.5.9-.6,1.4-.4l5.2,3c.5.3.6.9.4,1.4-.2.3-.5.5-.9.5Z"/>
  <path class="st0" d="M13,44.3c-.6,0-1-.4-1-1v-6c0-.6.4-1,1-1s1,.4,1,1v6c0,.6-.4,1-1,1Z"/>
  <path class="st0" d="M10.4,42.8c-.3,0-.7-.2-.9-.5-.3-.5-.1-1.1.4-1.4l5.2-3c.5-.3,1.1,0,1.4.4.3.5.1,1.1-.4,1.4l-5.2,3c-.2,0-.3,0-.5,0Z"/>
  <path class="st0" d="M15.6,42.8c-.2,0-.3,0-.5,0l-5.2-3c-.5-.3-.6-.9-.4-1.4.3-.5.9-.6,1.4-.4l5.2,3c.5.3.6.9.4,1.4-.2.3-.5.5-.9.5Z"/>
</svg>