<?xml version="1.0" encoding="UTF-8"?>
<svg id="Layer_1" xmlns="http://www.w3.org/2000/svg" version="1.1" xmlns:xlink="http://www.w3.org/1999/xlink" viewBox="0 0 48 48">
  <!-- Generator: Adobe Illustrator 30.1.0, SVG Export Plug-In . SVG Version: 2.1.1 Build 136)  -->
  <defs>
    <style>
      .st0 {
        fill: #199be2;
      }

      .st1 {
        fill: url(#linear-gradient1);
      }

      .st2 {
        fill: #0078d4;
      }

      .st3 {
        fill: #35c1f1;
      }

      .st4 {
        fill: url(#linear-gradient);
      }
    </style>
    <linearGradient id="linear-gradient" x1="4.7" y1="-985.7" x2="22.7" y2="-1003.7" gradientTransform="translate(0 -980) scale(1 -1)" gradientUnits="userSpaceOnUse">
      <stop offset="0" stop-color="#fed100"/>
      <stop offset="1" stop-color="#e36001"/>
    </linearGradient>
    <linearGradient id="linear-gradient1" x1="21.3" y1="35.9" x2="25.6" y2="10.5" gradientTransform="translate(0 50) scale(1 -1)" gradientUnits="userSpaceOnUse">
      <stop offset="0" stop-color="#fcfcfc"/>
      <stop offset="1" stop-color="#c3c9cd"/>
    </linearGradient>
  </defs>
  <path class="st4" d="M15,5c-6.1,0-11,5-11,11s4.9,11,11,11,11-5,11-11-5-11-11-11Z"/>
  <path class="st1" d="M34,19c-.3,0-.7,0-1,0-2.3-3.1-5.9-5-10-5s-10.5,3.8-12,9.1c-3.9.5-7,3.9-7,7.9s3.6,8,8,8h22c5.5,0,10-4.5,10-10s-4.5-10-10-10Z"/>
  <path class="st3" d="M25,31h-8c-.6,0-1-.4-1-1s.4-1,1-1h8c.6,0,1-.4,1-1s-.4-1-1-1-.4,0-.5.2c-.5.3-1.1.2-1.4-.3-.3-.5-.2-1.1.3-1.4.5-.3,1-.5,1.6-.5,1.7,0,3,1.3,3,3s-1.3,3-3,3Z"/>
  <path class="st0" d="M35,45c-2.3,0-4.4-1.3-5.4-3.4-.2-.5,0-1.1.5-1.3.5-.2,1.1,0,1.3.5.7,1.4,2.1,2.2,3.6,2.2,2.2,0,4-1.8,4-4s-1.8-4-4-4H15.6c-.6,0-1-.4-1-1s.4-1,1-1h19.4c3.3,0,6,2.7,6,6s-2.7,6-6,6Z"/>
  <path class="st2" d="M22,45c-1.5,0-2.9-.9-3.6-2.2-.2-.5,0-1.1.5-1.3.5-.2,1.1,0,1.3.5.3.7,1,1.1,1.8,1.1,1.1,0,2-.9,2-2s-.9-2-2-2h-8c-.6,0-1-.4-1-1s.4-1,1-1h8c2.2,0,4,1.8,4,4s-1.8,4-4,4Z"/>
</svg>