<?xml version="1.0" encoding="UTF-8"?>
<svg id="Layer_1" xmlns="http://www.w3.org/2000/svg" version="1.1" xmlns:xlink="http://www.w3.org/1999/xlink" viewBox="0 0 48 48">
  <!-- Generator: Adobe Illustrator 30.1.0, SVG Export Plug-In . SVG Version: 2.1.1 Build 136)  -->
  <defs>
    <style>
      .st0 {
        fill: #199be2;
      }

      .st1 {
        fill: url(#linear-gradient1);
      }

      .st2 {
        fill: #35c1f1;
      }

      .st3 {
        fill: url(#linear-gradient);
      }
    </style>
    <linearGradient id="linear-gradient" x1="4.5" y1="44.5" x2="17.6" y2="31.4" gradientTransform="translate(0 50) scale(1 -1)" gradientUnits="userSpaceOnUse">
      <stop offset="0" stop-color="#fed100"/>
      <stop offset="1" stop-color="#e36001"/>
    </linearGradient>
    <linearGradient id="linear-gradient1" x1="21.3" y1="40.9" x2="25.6" y2="15.5" gradientTransform="translate(0 50) scale(1 -1)" gradientUnits="userSpaceOnUse">
      <stop offset="0" stop-color="#fcfcfc"/>
      <stop offset="1" stop-color="#c3c9cd"/>
    </linearGradient>
  </defs>
  <path class="st3" d="M12,5c-4.4,0-8,3.6-8,8s3.6,8,8,8,8-3.6,8-8-3.6-8-8-8Z"/>
  <path class="st1" d="M34,14c-.3,0-.7,0-1,0-2.3-3.1-5.9-5-10-5s-10.5,3.8-12,9.1c-3.9.5-7,3.9-7,7.9s3.6,8,8,8h22c5.5,0,10-4.5,10-10s-4.5-10-10-10Z"/>
  <path class="st0" d="M17,47c-.6,0-1-.4-1-1v-6c0-.6.4-1,1-1s1,.4,1,1v6c0,.6-.4,1-1,1Z"/>
  <path class="st0" d="M14.4,45.5c-.3,0-.7-.2-.9-.5-.3-.5-.1-1.1.4-1.4l5.2-3c.5-.3,1.1-.1,1.4.4.3.5.1,1.1-.4,1.4l-5.2,3c-.2,0-.3.1-.5.1Z"/>
  <path class="st0" d="M19.6,45.5c-.2,0-.3,0-.5-.1l-5.2-3c-.5-.3-.6-.9-.4-1.4.3-.5.9-.6,1.4-.4l5.2,3c.5.3.6.9.4,1.4-.2.3-.5.5-.9.5Z"/>
  <path class="st2" d="M31,42c-.3,0-.5,0-.7-.3-.4-.4-.4-1,0-1.4l2-2c.4-.4,1-.4,1.4,0s.4,1,0,1.4l-2,2c-.2.2-.5.3-.7.3Z"/>
  <path class="st2" d="M33,42c-.3,0-.5,0-.7-.3l-2-2c-.4-.4-.4-1,0-1.4s1-.4,1.4,0l2,2c.4.4.4,1,0,1.4-.2.2-.5.3-.7.3Z"/>
</svg>