<?xml version="1.0" encoding="UTF-8"?>
<svg id="Layer_1" xmlns="http://www.w3.org/2000/svg" version="1.1" xmlns:xlink="http://www.w3.org/1999/xlink" viewBox="0 0 48 48">
  <!-- Generator: Adobe Illustrator 30.1.0, SVG Export Plug-In . SVG Version: 2.1.1 Build 136)  -->
  <defs>
    <style>
      .st0 {
        fill: #199be2;
      }

      .st1 {
        fill: url(#linear-gradient1);
      }

      .st2 {
        fill: #35c1f1;
      }

      .st3 {
        fill: url(#linear-gradient);
      }
    </style>
    <linearGradient id="linear-gradient" x1="4.7" y1="1036.7" x2="22.7" y2="1054.7" gradientTransform="translate(0 -1030)" gradientUnits="userSpaceOnUse">
      <stop offset="0" stop-color="#fed100"/>
      <stop offset="1" stop-color="#e36001"/>
    </linearGradient>
    <linearGradient id="linear-gradient1" x1="21.3" y1="1043.1" x2="25.6" y2="1068.5" gradientTransform="translate(0 -1030)" gradientUnits="userSpaceOnUse">
      <stop offset="0" stop-color="#fcfcfc"/>
      <stop offset="1" stop-color="#c3c9cd"/>
    </linearGradient>
  </defs>
  <path class="st3" d="M15,6c-6.1,0-11,5-11,11s4.9,11,11,11,11-5,11-11-5-11-11-11Z"/>
  <path class="st1" d="M34,18h-1c-2.3-3.1-5.9-5-10-5s-10.5,3.8-12,9.1c-3.9.5-7,3.9-7,7.9s3.6,8,8,8h22c5.5,0,10-4.5,10-10s-4.5-10-10-10Z"/>
  <path class="st0" d="M17,40c0,1.1-.9,2-2,2s-2,.9-2,2,.9,2,2,2h22c1.1,0,2-.9,2-2s-.9-2-2-2h-5c-1.1,0-2-.9-2-2s.9-2,2-2H15c1.1,0,2,.9,2,2Z"/>
  <path class="st0" d="M46,34h-4c-1.8,2.4-4.7,4-8,4h12c1.1,0,2-.9,2-2s-.9-2-2-2Z"/>
  <path class="st2" d="M42,34h-16c-1.1,0-2-.9-2-2s.9-2,2-2h2c1.1,0,2-.9,2-2h0c0-1.1-.9-2-2-2h-14c-1.1,0-2,.9-2,2s.9,2,2,2h2c1.1,0,2,.9,2,2s-.9,2-2,2h-4c-1.1,0-2,.9-2,2s.9,2,2,2h22c3.3,0,6.2-1.6,8-4Z"/>
</svg>