<?xml version="1.0" encoding="UTF-8"?>
<svg id="Layer_1" xmlns="http://www.w3.org/2000/svg" version="1.1" xmlns:xlink="http://www.w3.org/1999/xlink" viewBox="0 0 48 48">
  <!-- Generator: Adobe Illustrator 30.1.0, SVG Export Plug-In . SVG Version: 2.1.1 Build 136)  -->
  <defs>
    <style>
      .st0 {
        fill: url(#linear-gradient2);
      }

      .st1 {
        fill: url(#linear-gradient1);
      }

      .st2 {
        fill: url(#radial-gradient);
      }

      .st3 {
        fill: url(#radial-gradient1);
      }

      .st4 {
        fill: url(#radial-gradient2);
      }

      .st5 {
        fill: url(#linear-gradient);
      }
    </style>
    <radialGradient id="radial-gradient" cx="18.9" cy="27.1" fx="18.9" fy="27.1" r="19" gradientTransform="translate(0 50) scale(1 -1)" gradientUnits="userSpaceOnUse">
      <stop offset=".3" stop-color="#fcfcfc"/>
      <stop offset=".5" stop-color="#eff0f1"/>
      <stop offset=".7" stop-color="#ced1d3"/>
      <stop offset="1" stop-color="#aaafb3"/>
    </radialGradient>
    <radialGradient id="radial-gradient1" cx="14.7" cy="38.8" fx="14.7" fy="38.8" r="3.5" gradientTransform="translate(0 50) scale(1 -1)" gradientUnits="userSpaceOnUse">
      <stop offset=".3" stop-color="#9da2a6" stop-opacity="0"/>
      <stop offset="1" stop-color="#9da2a6"/>
    </radialGradient>
    <radialGradient id="radial-gradient2" cx="9.4" cy="33.4" fx="9.4" fy="33.4" r="1.7" gradientTransform="translate(0 50) scale(1 -1)" gradientUnits="userSpaceOnUse">
      <stop offset=".3" stop-color="#9da2a6" stop-opacity="0"/>
      <stop offset="1" stop-color="#9da2a6"/>
    </radialGradient>
    <linearGradient id="linear-gradient" x1="21.3" y1="35.9" x2="25.6" y2="10.5" gradientTransform="translate(0 50) scale(1 -1)" gradientUnits="userSpaceOnUse">
      <stop offset="0" stop-color="#bac0ff"/>
      <stop offset=".4" stop-color="#8a91e7"/>
      <stop offset=".8" stop-color="#6069d1"/>
      <stop offset="1" stop-color="#5059c9"/>
    </linearGradient>
    <linearGradient id="linear-gradient1" x1="26" y1="44.5" x2="29" y2="44.5" gradientUnits="userSpaceOnUse">
      <stop offset="0" stop-color="#006dd9"/>
      <stop offset=".4" stop-color="#0f80e3"/>
      <stop offset="1" stop-color="#2aa4f4"/>
    </linearGradient>
    <linearGradient id="linear-gradient2" x1="14" y1="45.5" x2="19" y2="45.5" xlink:href="#linear-gradient1"/>
  </defs>
  <path class="st2" d="M15,5c-6.1,0-11,4.9-11,11s4.9,11,11,11,11-4.9,11-11-4.9-11-11-11Z"/>
  <path class="st3" d="M14,8c-1.1,0-2,.9-2,2s.9,2,2,2,2-.9,2-2-.9-2-2-2Z"/>
  <path class="st4" d="M9,15c-.6,0-1,.4-1,1s.4,1,1,1,1-.4,1-1-.4-1-1-1Z"/>
  <path class="st5" d="M34,19c-.3,0-.7,0-1,0-2.3-3.1-5.9-5-10-5s-10.5,3.8-12,9.1c-3.9.5-7,3.9-7,7.9s3.6,8,8,8h22c5.5,0,10-4.5,10-10s-4.5-10-10-10Z"/>
  <path class="st1" d="M28,45.6c-.5.5-1.2.5-1.7,0s-.5-1.2,0-1.7c.5-.5,2.6-1,2.6-1,0,0-.5,2.2-1,2.6Z"/>
  <path class="st0" d="M17.4,47.4c-.8.8-2,.8-2.8,0s-.8-2,0-2.8c.8-.8,4.4-1.6,4.4-1.6,0,0-.8,3.6-1.6,4.4Z"/>
</svg>