<?xml version="1.0" encoding="UTF-8"?>
<svg id="Layer_1" xmlns="http://www.w3.org/2000/svg" version="1.1" xmlns:xlink="http://www.w3.org/1999/xlink" viewBox="0 0 48 48">
  <!-- Generator: Adobe Illustrator 30.1.0, SVG Export Plug-In . SVG Version: 2.1.1 Build 136)  -->
  <defs>
    <style>
      .st0 {
        fill: #199be2;
      }

      .st1 {
        fill: url(#radial-gradient);
      }

      .st2 {
        fill: url(#radial-gradient1);
      }

      .st3 {
        fill: #0078d4;
      }

      .st4 {
        fill: #35c1f1;
      }

      .st5 {
        fill: url(#radial-gradient2);
      }

      .st6 {
        fill: url(#linear-gradient);
      }
    </style>
    <radialGradient id="radial-gradient" cx="14.8" cy="-998" fx="14.8" fy="-998" r="13.8" gradientTransform="translate(0 -980) scale(1 -1)" gradientUnits="userSpaceOnUse">
      <stop offset=".3" stop-color="#fcfcfc"/>
      <stop offset=".5" stop-color="#eff0f1"/>
      <stop offset=".7" stop-color="#ced1d3"/>
      <stop offset="1" stop-color="#aaafb3"/>
    </radialGradient>
    <radialGradient id="radial-gradient1" cx="11.8" cy="-989.5" fx="11.8" fy="-989.5" r="2.5" gradientTransform="translate(0 -980) scale(1 -1)" gradientUnits="userSpaceOnUse">
      <stop offset=".3" stop-color="#9da2a6" stop-opacity="0"/>
      <stop offset="1" stop-color="#9da2a6"/>
    </radialGradient>
    <radialGradient id="radial-gradient2" cx="7.9" cy="1066.5" fx="7.9" fy="1066.5" r="1.3" gradientTransform="translate(0 -1030)" gradientUnits="userSpaceOnUse">
      <stop offset=".3" stop-color="#9da2a6" stop-opacity="0"/>
      <stop offset="1" stop-color="#9da2a6"/>
    </radialGradient>
    <linearGradient id="linear-gradient" x1="21.3" y1="-989.1" x2="25.6" y2="-1014.5" gradientTransform="translate(0 -980) scale(1 -1)" gradientUnits="userSpaceOnUse">
      <stop offset="0" stop-color="#bac0ff"/>
      <stop offset=".4" stop-color="#8a91e7"/>
      <stop offset=".8" stop-color="#6069d1"/>
      <stop offset="1" stop-color="#5059c9"/>
    </linearGradient>
  </defs>
  <g>
    <path class="st1" d="M12,5c-4.4,0-8,3.6-8,8s3.6,8,8,8,8-3.6,8-8-3.6-8-8-8Z"/>
    <path class="st2" d="M11.3,7.2c-.8,0-1.5.7-1.5,1.5s.7,1.5,1.5,1.5,1.5-.7,1.5-1.5-.7-1.5-1.5-1.5Z"/>
    <path class="st5" d="M7.6,12.3c-.4,0-.7.3-.7.7s.3.7.7.7.7-.3.7-.7-.3-.7-.7-.7Z"/>
  </g>
  <path class="st6" d="M34,14h-1c-2.3-3.1-5.9-5-10-5s-10.5,3.8-12,9.1c-3.9.5-7,3.9-7,7.9s3.6,8,8,8h22c5.5,0,10-4.5,10-10s-4.5-10-10-10Z"/>
  <g>
    <path class="st4" d="M25.1,27.6l-1-.6,1-.6c.5-.3.7-.9.4-1.4s-.9-.7-1.4-.4l-1.1.6v-1.2c0-.6-.4-1-1-1s-1,.4-1,1v1.2l-1.1-.6c-.5-.2-1.2,0-1.4.4s0,1.1.4,1.4l1,.6-1,.6c-.5.3-.7.9-.4,1.4.2.3.6.5.9.5s.3,0,.5,0l1.1-.6v1.2c0,.6.4,1,1,1s1-.4,1-1v-1.2l1.1.6c.2,0,.3,0,.5,0,.4,0,.7-.2.9-.5.2-.5,0-1.1-.4-1.4Z"/>
    <path class="st3" d="M20.1,44.6l-1-.6,1-.6c.5-.3.7-.9.4-1.4s-.9-.7-1.4-.4l-1.1.6v-1.2c0-.6-.4-1-1-1s-1,.4-1,1v1.2l-1.1-.6c-.5-.2-1.2,0-1.4.4s0,1.1.4,1.4l1,.6-1,.6c-.5.3-.7.9-.4,1.4.2.3.6.5.9.5s.3,0,.5,0l1.1-.6v1.2c0,.6.4,1,1,1s1-.4,1-1v-1.2l1.1.6c.2,0,.3,0,.5,0,.4,0,.7-.2.9-.5.2-.5,0-1.1-.4-1.4Z"/>
    <path class="st0" d="M35.1,40.6l-1-.6,1-.6c.5-.3.7-.9.4-1.4s-.9-.7-1.4-.4l-1.1.6v-1.2c0-.6-.4-1-1-1s-1,.4-1,1v1.2l-1.1-.6c-.5-.2-1.2,0-1.4.4s0,1.1.4,1.4l1,.6-1,.6c-.5.3-.7.9-.4,1.4.2.3.6.5.9.5s.3,0,.5,0l1.1-.6v1.2c0,.6.4,1,1,1s1-.4,1-1v-1.2l1.1.6c.2,0,.3,0,.5,0,.4,0,.7-.2.9-.5.2-.5,0-1.1-.4-1.4Z"/>
  </g>
</svg>