<?xml version="1.0" encoding="UTF-8"?>
<svg id="Layer_1" xmlns="http://www.w3.org/2000/svg" version="1.1" xmlns:xlink="http://www.w3.org/1999/xlink" viewBox="0 0 48 48">
  <!-- Generator: Adobe Illustrator 30.1.0, SVG Export Plug-In . SVG Version: 2.1.1 Build 136)  -->
  <defs>
    <style>
      .st0 {
        fill: url(#linear-gradient2);
      }

      .st1 {
        fill: url(#linear-gradient1);
      }

      .st2 {
        fill: url(#linear-gradient4);
      }

      .st3 {
        fill: url(#linear-gradient5);
      }

      .st4 {
        fill: url(#linear-gradient3);
      }

      .st5 {
        fill: #35c1f1;
      }

      .st6 {
        fill: url(#linear-gradient);
      }
    </style>
    <linearGradient id="linear-gradient" x1="21.3" y1="1036.1" x2="25.6" y2="1061.5" gradientTransform="translate(0 -1030)" gradientUnits="userSpaceOnUse">
      <stop offset="0" stop-color="#bac0ff"/>
      <stop offset=".4" stop-color="#8a91e7"/>
      <stop offset=".8" stop-color="#6069d1"/>
      <stop offset="1" stop-color="#5059c9"/>
    </linearGradient>
    <linearGradient id="linear-gradient1" x1="36" y1="1068" x2="36" y2="1064.1" gradientTransform="translate(0 -1030)" gradientUnits="userSpaceOnUse">
      <stop offset="0" stop-color="#008edb"/>
      <stop offset="1" stop-color="#1caaf7"/>
    </linearGradient>
    <linearGradient id="linear-gradient2" x1="15" y1="1076" x2="15" y2="1072.1" gradientTransform="translate(0 -1030)" gradientUnits="userSpaceOnUse">
      <stop offset="0" stop-color="#008edb"/>
      <stop offset="1" stop-color="#1caaf7"/>
    </linearGradient>
    <linearGradient id="linear-gradient3" x1="8.5" y1="1070" x2="8.5" y2="1067" gradientTransform="translate(0 -1030)" gradientUnits="userSpaceOnUse">
      <stop offset="0" stop-color="#008edb"/>
      <stop offset="1" stop-color="#1caaf7"/>
    </linearGradient>
    <linearGradient id="linear-gradient4" x1="38.5" y1="1074" x2="38.5" y2="1071" gradientTransform="translate(0 -1030)" gradientUnits="userSpaceOnUse">
      <stop offset="0" stop-color="#008edb"/>
      <stop offset="1" stop-color="#1caaf7"/>
    </linearGradient>
    <linearGradient id="linear-gradient5" x1="18.5" y1="1068.9" x2="18.5" y2="1064.1" gradientTransform="translate(0 -1030)" gradientUnits="userSpaceOnUse">
      <stop offset="0" stop-color="#008edb"/>
      <stop offset="1" stop-color="#1caaf7"/>
    </linearGradient>
  </defs>
  <path class="st6" d="M34,11h-1c-2.3-3.1-5.9-5-10-5s-10.5,3.8-12,9.1c-3.9.5-7,3.9-7,7.9s3.6,8,8,8h22c5.5,0,10-4.5,10-10s-4.5-10-10-10Z"/>
  <path class="st5" d="M28,46c-.6,0-1-.4-1-1v-6c0-.6.4-1,1-1s1,.4,1,1v6c0,.6-.4,1-1,1Z"/>
  <path class="st5" d="M25.4,44.5c-.3,0-.7-.2-.9-.5-.3-.5-.1-1.1.4-1.4l5.2-3c.5-.3,1.1,0,1.4.4s.1,1.1-.4,1.4l-5.2,3c-.2,0-.3,0-.5,0Z"/>
  <path class="st5" d="M30.6,44.5c-.2,0-.3,0-.5,0l-5.2-3c-.5-.3-.6-.9-.4-1.4.3-.5.9-.6,1.4-.4l5.2,3c.5.3.6.9.4,1.4-.2.3-.5.5-.9.5Z"/>
  <circle class="st1" cx="36" cy="36" r="2"/>
  <circle class="st0" cx="15" cy="44" r="2"/>
  <circle class="st4" cx="8.5" cy="38.5" r="1.5"/>
  <circle class="st2" cx="38.5" cy="42.5" r="1.5"/>
  <circle class="st3" cx="18.5" cy="36.5" r="2.5"/>
</svg>