<?xml version="1.0" encoding="UTF-8"?>
<svg id="Layer_1" xmlns="http://www.w3.org/2000/svg" version="1.1" xmlns:xlink="http://www.w3.org/1999/xlink" viewBox="0 0 48 48">
  <!-- Generator: Adobe Illustrator 30.1.0, SVG Export Plug-In . SVG Version: 2.1.1 Build 136)  -->
  <defs>
    <style>
      .st0 {
        fill: url(#linear-gradient2);
      }

      .st1 {
        fill: url(#linear-gradient1);
      }

      .st2 {
        fill: url(#linear-gradient9);
      }

      .st3 {
        fill: url(#linear-gradient8);
      }

      .st4 {
        fill: url(#linear-gradient7);
      }

      .st5 {
        fill: url(#linear-gradient4);
      }

      .st6 {
        fill: url(#linear-gradient5);
      }

      .st7 {
        fill: url(#linear-gradient3);
      }

      .st8 {
        fill: url(#linear-gradient6);
      }

      .st9 {
        fill: url(#linear-gradient);
      }
    </style>
    <linearGradient id="linear-gradient" x1="21.3" y1="-1276.1" x2="25.6" y2="-1301.5" gradientTransform="translate(0 -1270) scale(1 -1)" gradientUnits="userSpaceOnUse">
      <stop offset="0" stop-color="#bac0ff"/>
      <stop offset=".4" stop-color="#8a91e7"/>
      <stop offset=".8" stop-color="#6069d1"/>
      <stop offset="1" stop-color="#5059c9"/>
    </linearGradient>
    <linearGradient id="linear-gradient1" x1="14.1" y1="-1303.6" x2="14.7" y2="-1308.1" gradientTransform="translate(0 -1270) scale(1 -1)" gradientUnits="userSpaceOnUse">
      <stop offset="0" stop-color="#2aa4f4"/>
      <stop offset=".6" stop-color="#0f80e3"/>
      <stop offset="1" stop-color="#006dd9"/>
    </linearGradient>
    <linearGradient id="linear-gradient2" x1="12.7" y1="-1311" x2="13.1" y2="-1314" gradientTransform="translate(0 -1270) scale(1 -1)" gradientUnits="userSpaceOnUse">
      <stop offset="0" stop-color="#2aa4f4"/>
      <stop offset=".6" stop-color="#0f80e3"/>
      <stop offset="1" stop-color="#006dd9"/>
    </linearGradient>
    <linearGradient id="linear-gradient3" x1="38.1" y1="-1303.6" x2="38.7" y2="-1308.1" gradientTransform="translate(0 -1270) scale(1 -1)" gradientUnits="userSpaceOnUse">
      <stop offset="0" stop-color="#2aa4f4"/>
      <stop offset=".6" stop-color="#0f80e3"/>
      <stop offset="1" stop-color="#006dd9"/>
    </linearGradient>
    <linearGradient id="linear-gradient4" x1="36.7" y1="-1311" x2="37.1" y2="-1314" gradientTransform="translate(0 -1270) scale(1 -1)" gradientUnits="userSpaceOnUse">
      <stop offset="0" stop-color="#2aa4f4"/>
      <stop offset=".6" stop-color="#0f80e3"/>
      <stop offset="1" stop-color="#006dd9"/>
    </linearGradient>
    <linearGradient id="linear-gradient5" x1="7.7" y1="-1304" x2="8.1" y2="-1307" gradientTransform="translate(0 -1270) scale(1 -1)" gradientUnits="userSpaceOnUse">
      <stop offset="0" stop-color="#2aa4f4"/>
      <stop offset=".6" stop-color="#0f80e3"/>
      <stop offset="1" stop-color="#006dd9"/>
    </linearGradient>
    <linearGradient id="linear-gradient6" x1="6.1" y1="-1310.6" x2="6.7" y2="-1315.1" gradientTransform="translate(0 -1270) scale(1 -1)" gradientUnits="userSpaceOnUse">
      <stop offset="0" stop-color="#2aa4f4"/>
      <stop offset=".6" stop-color="#0f80e3"/>
      <stop offset="1" stop-color="#006dd9"/>
    </linearGradient>
    <linearGradient id="linear-gradient7" x1="31.7" y1="-1304" x2="32.1" y2="-1307" gradientTransform="translate(0 -1270) scale(1 -1)" gradientUnits="userSpaceOnUse">
      <stop offset="0" stop-color="#2aa4f4"/>
      <stop offset=".6" stop-color="#0f80e3"/>
      <stop offset="1" stop-color="#006dd9"/>
    </linearGradient>
    <linearGradient id="linear-gradient8" x1="30.1" y1="-1310.6" x2="30.7" y2="-1315.1" gradientTransform="translate(0 -1270) scale(1 -1)" gradientUnits="userSpaceOnUse">
      <stop offset="0" stop-color="#2aa4f4"/>
      <stop offset=".6" stop-color="#0f80e3"/>
      <stop offset="1" stop-color="#006dd9"/>
    </linearGradient>
    <linearGradient id="linear-gradient9" x1="23" y1="-1290.9" x2="23" y2="-1310.4" gradientTransform="translate(0 -1270) scale(1 -1)" gradientUnits="userSpaceOnUse">
      <stop offset="0" stop-color="#fede00"/>
      <stop offset="1" stop-color="#ffd000"/>
    </linearGradient>
  </defs>
  <path class="st9" d="M34,11h-1c-2.3-3.1-5.9-5-10-5s-10.5,3.8-12,9.1c-3.9.5-7,3.9-7,7.9s3.6,8,8,8h22c5.5,0,10-4.5,10-10s-4.5-10-10-10Z"/>
  <path class="st1" d="M16,36.5c0,.8-.7,1.5-1.5,1.5s-1.5-.7-1.5-1.5,1-2.4,1.4-2.9h.2c.4.6,1.4,2.2,1.4,2.9Z"/>
  <path class="st0" d="M14,43c0,.6-.4,1-1,1s-1-.4-1-1,.7-1.6.9-2h.2c.2.4.9,1.5.9,2Z"/>
  <path class="st7" d="M40,36.5c0,.8-.7,1.5-1.5,1.5s-1.5-.7-1.5-1.5,1-2.4,1.4-2.9h.2c.4.6,1.4,2.2,1.4,2.9Z"/>
  <path class="st5" d="M38,43c0,.6-.4,1-1,1s-1-.4-1-1,.7-1.6.9-2h.2c.2.4.9,1.5.9,2Z"/>
  <path class="st6" d="M9,36c0,.6-.4,1-1,1s-1-.4-1-1,.7-1.6.9-2h.2c.2.4.9,1.5.9,2Z"/>
  <path class="st8" d="M8,43.5c0,.8-.7,1.5-1.5,1.5s-1.5-.7-1.5-1.5,1-2.4,1.4-2.9h.2c.4.6,1.4,2.2,1.4,2.9Z"/>
  <path class="st4" d="M33,36c0,.6-.4,1-1,1s-1-.4-1-1,.7-1.6.9-2h.2c.2.4.9,1.5.9,2Z"/>
  <path class="st3" d="M32,43.5c0,.8-.7,1.5-1.5,1.5s-1.5-.7-1.5-1.5,1-2.4,1.4-2.9h.2c.4.6,1.4,2.2,1.4,2.9Z"/>
  <path class="st2" d="M23,39.5v-6.5h-4.5c-.7,0-1.2-.7-.9-1.4l4.4-10.3c.2-.5,1-.4,1,.2v7.5h4.5c.7,0,1.2.8.9,1.4l-4.4,9.3c-.2.5-1,.3-1-.2Z"/>
</svg>