<?xml version="1.0" encoding="UTF-8"?>
<svg id="Layer_1" xmlns="http://www.w3.org/2000/svg" version="1.1" xmlns:xlink="http://www.w3.org/1999/xlink" viewBox="0 0 48 48">
  <!-- Generator: Adobe Illustrator 30.1.0, SVG Export Plug-In . SVG Version: 2.1.1 Build 136)  -->
  <defs>
    <style>
      .st0 {
        fill: #199be2;
      }

      .st1 {
        fill: url(#radial-gradient);
      }

      .st2 {
        fill: url(#radial-gradient1);
      }

      .st3 {
        fill: #35c1f1;
      }

      .st4 {
        fill: url(#radial-gradient2);
      }

      .st5 {
        fill: url(#linear-gradient);
      }
    </style>
    <radialGradient id="radial-gradient" cx="14.8" cy="32" fx="14.8" fy="32" r="13.8" gradientTransform="translate(0 50) scale(1 -1)" gradientUnits="userSpaceOnUse">
      <stop offset=".3" stop-color="#fcfcfc"/>
      <stop offset=".5" stop-color="#eff0f1"/>
      <stop offset=".7" stop-color="#ced1d3"/>
      <stop offset="1" stop-color="#aaafb3"/>
    </radialGradient>
    <radialGradient id="radial-gradient1" cx="11.8" cy="40.5" fx="11.8" fy="40.5" r="2.5" gradientTransform="translate(0 50) scale(1 -1)" gradientUnits="userSpaceOnUse">
      <stop offset=".3" stop-color="#9da2a6" stop-opacity="0"/>
      <stop offset="1" stop-color="#9da2a6"/>
    </radialGradient>
    <radialGradient id="radial-gradient2" cx="7.9" cy="36.5" fx="7.9" fy="36.5" r="1.3" xlink:href="#radial-gradient1"/>
    <linearGradient id="linear-gradient" x1="21.3" y1="1039.1" x2="25.6" y2="1064.5" gradientTransform="translate(0 -1030)" gradientUnits="userSpaceOnUse">
      <stop offset="0" stop-color="#bac0ff"/>
      <stop offset=".4" stop-color="#8a91e7"/>
      <stop offset=".8" stop-color="#6069d1"/>
      <stop offset="1" stop-color="#5059c9"/>
    </linearGradient>
  </defs>
  <g>
    <path class="st1" d="M12,5c-4.4,0-8,3.6-8,8s3.6,8,8,8,8-3.6,8-8-3.6-8-8-8Z"/>
    <path class="st2" d="M11.3,7.2c-.8,0-1.5.7-1.5,1.5s.7,1.5,1.5,1.5,1.5-.7,1.5-1.5-.7-1.5-1.5-1.5Z"/>
    <path class="st4" d="M7.6,12.3c-.4,0-.7.3-.7.7s.3.7.7.7.7-.3.7-.7-.3-.7-.7-.7Z"/>
  </g>
  <path class="st5" d="M34,14h-1c-2.3-3.1-5.9-5-10-5s-10.5,3.8-12,9.1c-3.9.5-7,3.9-7,7.9s3.6,8,8,8h22c5.5,0,10-4.5,10-10s-4.5-10-10-10Z"/>
  <path class="st0" d="M17,47c-.6,0-1-.4-1-1v-6c0-.6.4-1,1-1s1,.4,1,1v6c0,.6-.4,1-1,1Z"/>
  <path class="st0" d="M14.4,45.5c-.3,0-.7-.2-.9-.5-.3-.5-.1-1.1.4-1.4l5.2-3c.5-.3,1.1,0,1.4.4s.1,1.1-.4,1.4l-5.2,3c-.2,0-.3,0-.5,0Z"/>
  <path class="st0" d="M19.6,45.5c-.2,0-.3,0-.5,0l-5.2-3c-.5-.3-.6-.9-.4-1.4.3-.5.9-.6,1.4-.4l5.2,3c.5.3.6.9.4,1.4-.2.3-.5.5-.9.5Z"/>
  <path class="st3" d="M31,42c-.3,0-.5,0-.7-.3-.4-.4-.4-1,0-1.4l2-2c.4-.4,1-.4,1.4,0s.4,1,0,1.4l-2,2c-.2.2-.5.3-.7.3Z"/>
  <path class="st3" d="M33,42c-.3,0-.5,0-.7-.3l-2-2c-.4-.4-.4-1,0-1.4s1-.4,1.4,0l2,2c.4.4.4,1,0,1.4s-.5.3-.7.3Z"/>
</svg>