<?xml version="1.0" encoding="UTF-8"?>
<svg id="Layer_1" xmlns="http://www.w3.org/2000/svg" version="1.1" xmlns:xlink="http://www.w3.org/1999/xlink" viewBox="0 0 48 48">
  <!-- Generator: Adobe Illustrator 30.1.0, SVG Export Plug-In . SVG Version: 2.1.1 Build 136)  -->
  <defs>
    <style>
      .st0 {
        fill: url(#radial-gradient);
      }

      .st1 {
        fill: url(#radial-gradient1);
      }

      .st2 {
        fill: url(#radial-gradient2);
      }

      .st3 {
        fill: #5059c9;
      }

      .st4 {
        fill: url(#linear-gradient);
      }

      .st5 {
        fill: #8e95f0;
      }
    </style>
    <radialGradient id="radial-gradient" cx="18.9" cy="26.1" fx="18.9" fy="26.1" r="19" gradientTransform="translate(0 50) scale(1 -1)" gradientUnits="userSpaceOnUse">
      <stop offset=".3" stop-color="#fcfcfc"/>
      <stop offset=".5" stop-color="#eff0f1"/>
      <stop offset=".7" stop-color="#ced1d3"/>
      <stop offset="1" stop-color="#aaafb3"/>
    </radialGradient>
    <radialGradient id="radial-gradient1" cx="14.7" cy="37.8" fx="14.7" fy="37.8" r="3.5" gradientTransform="translate(0 50) scale(1 -1)" gradientUnits="userSpaceOnUse">
      <stop offset=".3" stop-color="#9da2a6" stop-opacity="0"/>
      <stop offset="1" stop-color="#9da2a6"/>
    </radialGradient>
    <radialGradient id="radial-gradient2" cx="9.4" cy="32.4" fx="9.4" fy="32.4" r="1.7" gradientTransform="translate(0 50) scale(1 -1)" gradientUnits="userSpaceOnUse">
      <stop offset=".3" stop-color="#9da2a6" stop-opacity="0"/>
      <stop offset="1" stop-color="#9da2a6"/>
    </radialGradient>
    <linearGradient id="linear-gradient" x1="21.3" y1="36.9" x2="25.6" y2="11.5" gradientTransform="translate(0 50) scale(1 -1)" gradientUnits="userSpaceOnUse">
      <stop offset="0" stop-color="#bac0ff"/>
      <stop offset=".4" stop-color="#8a91e7"/>
      <stop offset=".8" stop-color="#6069d1"/>
      <stop offset="1" stop-color="#5059c9"/>
    </linearGradient>
  </defs>
  <g>
    <path class="st0" d="M15,6c-6.1,0-11,4.9-11,11s4.9,11,11,11,11-4.9,11-11-4.9-11-11-11Z"/>
    <path class="st1" d="M14,9c-1.1,0-2,.9-2,2s.9,2,2,2,2-.9,2-2-.9-2-2-2Z"/>
    <path class="st2" d="M9,16c-.6,0-1,.4-1,1s.4,1,1,1,1-.4,1-1-.4-1-1-1Z"/>
  </g>
  <path class="st4" d="M34,18c-.3,0-.7,0-1,0-2.3-3.1-5.9-5-10-5s-10.5,3.8-12,9.1c-3.9.5-7,3.9-7,7.9s3.6,8,8,8h22c5.5,0,10-4.5,10-10s-4.5-10-10-10Z"/>
  <path class="st3" d="M17,40c0,1.1-.9,2-2,2s-2,.9-2,2,.9,2,2,2h22c1.1,0,2-.9,2-2s-.9-2-2-2h-5c-1.1,0-2-.9-2-2s.9-2,2-2H15c1.1,0,2,.9,2,2Z"/>
  <path class="st3" d="M46,34h-4c-1.8,2.4-4.7,4-8,4h12c1.1,0,2-.9,2-2s-.9-2-2-2Z"/>
  <path class="st5" d="M42,34h-16c-1.1,0-2-.9-2-2s.9-2,2-2h2c1.1,0,2-.9,2-2h0c0-1.1-.9-2-2-2h-14c-1.1,0-2,.9-2,2s.9,2,2,2h0s2,0,2,0c1.1,0,2,.9,2,2s-.9,2-2,2h-4c-1.1,0-2,.9-2,2s.9,2,2,2h22c3.3,0,6.2-1.6,8-4Z"/>
</svg>