<?xml version="1.0" encoding="UTF-8"?>
<svg id="Layer_1" xmlns="http://www.w3.org/2000/svg" version="1.1" xmlns:xlink="http://www.w3.org/1999/xlink" viewBox="0 0 48 48">
  <!-- Generator: Adobe Illustrator 30.1.0, SVG Export Plug-In . SVG Version: 2.1.1 Build 136)  -->
  <defs>
    <style>
      .st0 {
        fill: #199be2;
      }

      .st1 {
        fill: #35c1f1;
      }

      .st2 {
        fill: url(#linear-gradient);
      }
    </style>
    <linearGradient id="linear-gradient" x1="21.3" y1="1036.1" x2="25.6" y2="1061.5" gradientTransform="translate(0 -1030)" gradientUnits="userSpaceOnUse">
      <stop offset="0" stop-color="#bac0ff"/>
      <stop offset=".4" stop-color="#8a91e7"/>
      <stop offset=".8" stop-color="#6069d1"/>
      <stop offset="1" stop-color="#5059c9"/>
    </linearGradient>
  </defs>
  <path class="st1" d="M23.6,36.4l-2.4,3.3c-.1.2-.1.5,0,.7l2.4,3.3c.1.2.3.2.4.2l1-3.9-1-3.9c-.2,0-.3,0-.4.2h0Z"/>
  <path class="st2" d="M34,11h-1c-2.3-3.1-5.9-5-10-5s-10.5,3.8-12,9.1c-3.9.5-7,3.9-7,7.9s3.6,8,8,8h22c5.5,0,10-4.5,10-10s-4.5-10-10-10Z"/>
  <path class="st0" d="M26.9,40.3c.1-.2.1-.5,0-.7l-2.4-3.3c-.1-.2-.3-.2-.4-.2v7.7c.2,0,.3,0,.4-.2l2.4-3.3Z"/>
  <path class="st1" d="M33.7,35.6l-1.6,2.2v.4l1.6,2.2s.2.2.3.2l.7-2.6-.7-2.6c0,0-.2,0-.3.2Z"/>
  <path class="st0" d="M35.9,38.2v-.4l-1.6-2.2s-.2-.2-.3-.2v5.2c0,0,.2,0,.3-.2,0,0,1.6-2.2,1.6-2.2Z"/>
  <path class="st1" d="M13.7,35.6l-1.6,2.2v.4l1.6,2.2s.2.2.3.2l.7-2.6-.7-2.6c-.1,0-.2,0-.3.2Z"/>
  <path class="st0" d="M15.9,38.2v-.4l-1.6-2.2s-.2-.2-.3-.2v5.2c.1,0,.2,0,.3-.2,0,0,1.6-2.2,1.6-2.2Z"/>
</svg>