<?xml version="1.0" encoding="UTF-8"?>
<svg id="Layer_1" xmlns="http://www.w3.org/2000/svg" version="1.1" xmlns:xlink="http://www.w3.org/1999/xlink" viewBox="0 0 48 48">
  <!-- Generator: Adobe Illustrator 30.1.0, SVG Export Plug-In . SVG Version: 2.1.1 Build 136)  -->
  <defs>
    <style>
      .st0 {
        fill: #199be2;
      }

      .st1 {
        fill: url(#linear-gradient1);
      }

      .st2 {
        fill: #35c1f1;
      }

      .st3 {
        fill: url(#linear-gradient);
      }
    </style>
    <linearGradient id="linear-gradient" x1="21.3" y1="1036.1" x2="25.6" y2="1061.5" gradientTransform="translate(0 -1030)" gradientUnits="userSpaceOnUse">
      <stop offset="0" stop-color="#bac0ff"/>
      <stop offset=".4" stop-color="#8a91e7"/>
      <stop offset=".8" stop-color="#6069d1"/>
      <stop offset="1" stop-color="#5059c9"/>
    </linearGradient>
    <linearGradient id="linear-gradient1" x1="24.9" y1="1050.9" x2="24.9" y2="1070.6" gradientTransform="translate(0 -1030)" gradientUnits="userSpaceOnUse">
      <stop offset="0" stop-color="#fede00"/>
      <stop offset="1" stop-color="#ffd000"/>
    </linearGradient>
  </defs>
  <path class="st3" d="M34,11h-1c-2.3-3.1-5.9-5-10-5s-10.5,3.8-12,9.1c-3.9.5-7,3.9-7,7.9s3.6,8,8,8h22c5.5,0,10-4.5,10-10s-4.5-10-10-10Z"/>
  <path class="st1" d="M25,39.6v-6.6h-4.5c-.7,0-1.2-.7-.9-1.4l4.4-10.3c.2-.5,1-.4,1,.2v7.5h4.4c.7,0,1.2.8.9,1.4l-4.4,9.4c-.2.5-1,.3-1-.2h.1Z"/>
  <path class="st0" d="M40.1,38.9l-1-.6,1-.6c.5-.3.7-.9.4-1.4s-.9-.7-1.4-.4l-1.1.6v-1.2c0-.6-.4-1-1-1s-1,.4-1,1v1.2l-1.1-.6c-.5-.2-1.1-.1-1.4.4-.2.5,0,1.1.4,1.4l1,.6-1,.6c-.5.3-.7.9-.4,1.4.2.3.6.5.9.5s.3,0,.5,0l1.1-.6v1.2c0,.6.4,1,1,1s1-.4,1-1v-1.2l1.1.6c.2,0,.3,0,.5,0,.4,0,.7-.2.9-.5.2-.5,0-1.1-.4-1.4Z"/>
  <path class="st2" d="M16.1,40.9l-1-.6,1-.6c.5-.3.7-.9.4-1.4s-.9-.7-1.4-.4l-1.1.6v-1.2c0-.6-.4-1-1-1s-1,.4-1,1v1.2l-1.1-.6c-.5-.2-1.1-.1-1.4.4-.2.5,0,1.1.4,1.4l1,.6-1,.6c-.5.3-.7.9-.4,1.4.2.3.6.5.9.5s.3,0,.5,0l1.1-.6v1.2c0,.6.4,1,1,1s1-.4,1-1v-1.2l1.1.6c.2,0,.3,0,.5,0,.4,0,.7-.2.9-.5.2-.5,0-1.1-.4-1.4Z"/>
</svg>