<?xml version="1.0" encoding="UTF-8"?>
<svg id="Layer_1" xmlns="http://www.w3.org/2000/svg" version="1.1" xmlns:xlink="http://www.w3.org/1999/xlink" viewBox="0 0 48 48">
  <!-- Generator: Adobe Illustrator 30.1.0, SVG Export Plug-In . SVG Version: 2.1.1 Build 136)  -->
  <defs>
    <style>
      .st0 {
        fill: #199be2;
      }

      .st1 {
        fill: #0078d4;
      }

      .st2 {
        fill: #35c1f1;
      }

      .st3 {
        fill: url(#linear-gradient);
      }
    </style>
    <linearGradient id="linear-gradient" x1="21.3" y1="1037.1" x2="25.6" y2="1062.5" gradientTransform="translate(0 -1030)" gradientUnits="userSpaceOnUse">
      <stop offset="0" stop-color="#bac0ff"/>
      <stop offset=".4" stop-color="#8a91e7"/>
      <stop offset=".8" stop-color="#6069d1"/>
      <stop offset="1" stop-color="#5059c9"/>
    </linearGradient>
  </defs>
  <path class="st3" d="M34,12h-1c-2.3-3.1-5.9-5-10-5s-10.5,3.8-12,9.1c-3.9.5-7,3.9-7,7.9s3.6,8,8,8h22c5.5,0,10-4.5,10-10s-4.5-10-10-10Z"/>
  <path class="st0" d="M44.1,39.9l-1-.6,1-.6c.5-.3.7-.9.4-1.4s-.9-.7-1.4-.4l-1.1.6v-1.2c0-.6-.4-1-1-1s-1,.4-1,1v1.2l-1.1-.6c-.5-.2-1.1-.1-1.4.4-.2.5,0,1.1.4,1.4l1,.6-1,.6c-.5.3-.7.9-.4,1.4.2.3.6.5.9.5s.3,0,.5,0l1.1-.6v1.2c0,.6.4,1,1,1s1-.4,1-1v-1.2l1.1.6c.2,0,.3,0,.5,0,.4,0,.7-.2.9-.5.2-.5,0-1.1-.4-1.4Z"/>
  <path class="st2" d="M37.1,21.9l-1-.6,1-.6c.5-.3.7-.9.4-1.4s-.9-.7-1.4-.4l-1.1.6v-1.2c0-.6-.4-1-1-1s-1,.4-1,1v1.2l-1.1-.6c-.5-.2-1.1-.1-1.4.4-.2.5,0,1.1.4,1.4l1,.6-1,.6c-.5.3-.7.9-.4,1.4.2.3.6.5.9.5s.3,0,.5,0l1.1-.6v1.2c0,.6.4,1,1,1s1-.4,1-1v-1.2l1.1.6c.2,0,.3,0,.5,0,.4,0,.7-.2.9-.5.2-.5,0-1.1-.4-1.4Z"/>
  <g>
    <path class="st2" d="M19.5,27.9h-6.9c-.6,0-1.1-.5-1.1-1.1s.5-1.1,1.1-1.1h6.9c.9,0,1.6-.7,1.6-1.6s-.7-1.6-1.6-1.6-1.2.3-1.4.9c-.3.5-.9.7-1.4.5-.5-.3-.7-.9-.5-1.4.6-1.3,1.9-2.1,3.3-2.1,2,0,3.7,1.7,3.7,3.7s-1.7,3.7-3.7,3.7h0Z"/>
    <path class="st0" d="M26.9,40.6c-2,0-3.9-1.1-4.8-3-.3-.5,0-1.2.5-1.4.5-.3,1.2,0,1.4.5.5,1.1,1.6,1.8,2.9,1.8s3.2-1.4,3.2-3.2-1.4-3.2-3.2-3.2H10.5c-.6,0-1.1-.5-1.1-1.1s.5-1.1,1.1-1.1h16.5c2.9,0,5.3,2.4,5.3,5.3s-2.4,5.3-5.3,5.3h-.1Z"/>
    <path class="st1" d="M15.7,41.7c-1.4,0-2.7-.8-3.3-2.1-.3-.5,0-1.2.5-1.4.5-.3,1.2,0,1.4.5.3.6.8.9,1.4.9.9,0,1.6-.7,1.6-1.6s-.7-1.6-1.6-1.6h-6.9c-.6,0-1.1-.5-1.1-1.1s.5-1.1,1.1-1.1h6.9c2,0,3.7,1.7,3.7,3.7s-1.7,3.7-3.7,3.7h0Z"/>
  </g>
</svg>