<?xml version="1.0" encoding="UTF-8"?>
<svg id="Layer_1" xmlns="http://www.w3.org/2000/svg" version="1.1" xmlns:xlink="http://www.w3.org/1999/xlink" viewBox="0 0 48 48">
  <!-- Generator: Adobe Illustrator 30.1.0, SVG Export Plug-In . SVG Version: 2.1.1 Build 136)  -->
  <defs>
    <style>
      .st0 {
        fill: url(#radial-gradient);
      }

      .st1 {
        fill: url(#radial-gradient1);
      }

      .st2 {
        fill: url(#radial-gradient2);
      }

      .st3 {
        fill: #5059c9;
      }

      .st4 {
        fill: #8e95f0;
      }
    </style>
    <radialGradient id="radial-gradient" cx="31.1" cy="13.5" fx="31.1" fy="13.5" r="34.6" gradientTransform="translate(0 50) scale(1 -1)" gradientUnits="userSpaceOnUse">
      <stop offset=".3" stop-color="#fcfcfc"/>
      <stop offset=".5" stop-color="#eff0f1"/>
      <stop offset=".7" stop-color="#ced1d3"/>
      <stop offset="1" stop-color="#aaafb3"/>
    </radialGradient>
    <radialGradient id="radial-gradient1" cx="23.5" cy="34.6" fx="23.5" fy="34.6" r="6.3" gradientTransform="translate(0 50) scale(1 -1)" gradientUnits="userSpaceOnUse">
      <stop offset=".3" stop-color="#9da2a6" stop-opacity="0"/>
      <stop offset="1" stop-color="#9da2a6"/>
    </radialGradient>
    <radialGradient id="radial-gradient2" cx="13.7" cy="24.9" fx="13.7" fy="24.9" r="3.1" xlink:href="#radial-gradient1"/>
  </defs>
  <g>
    <path class="st0" d="M24,4C13,4,4,13,4,24s9,20,20,20,20-9,20-20S35,4,24,4Z"/>
    <path class="st1" d="M22.2,9.5c-2,0-3.6,1.6-3.6,3.6s1.6,3.6,3.6,3.6,3.6-1.6,3.6-3.6-1.6-3.6-3.6-3.6Z"/>
    <path class="st2" d="M13.1,22.2c-1,0-1.8.8-1.8,1.8s.8,1.8,1.8,1.8,1.8-.8,1.8-1.8-.8-1.8-1.8-1.8Z"/>
  </g>
  <path class="st3" d="M5.7,32h-1.7c-1.1,0-2,.9-2,2s.9,2,2,2h3c1.1,0,2,.9,2,2s-.9,2-2,2-2,.9-2,2,.9,2,2,2h17c-8.2,0-15.2-4.9-18.3-12Z"/>
  <path class="st3" d="M42,40h-6c-3.3,2.5-7.5,4-12,4h18c.8,0,1.5-.5,1.8-1.2h0c0-.1.1-.3.1-.4,0,0,0,0,0,0,0-.1,0-.3,0-.4,0-1.1-.9-2-2-2Z"/>
  <path class="st4" d="M30,40c-1.1,0-2-.9-2-2s.9-2,2-2h6c1.1,0,2-.9,2-2s-.9-2-2-2h-16c-1.1,0-2-.9-2-2s.9-2,2-2h2c1.1,0,2-.9,2-2h0c0-1.1-.9-2-2-2h-14c-1.1,0-2,.9-2,2s.9,2,2,2h0s2,0,2,0c1.1,0,2,.9,2,2s-.9,2-2,2h-4.3c3.1,7.1,10.1,12,18.3,12s8.6-1.5,12-4h-6Z"/>
</svg>