<?xml version="1.0" encoding="UTF-8"?>
<svg id="Layer_1" xmlns="http://www.w3.org/2000/svg" version="1.1" xmlns:xlink="http://www.w3.org/1999/xlink" viewBox="0 0 48 48">
  <!-- Generator: Adobe Illustrator 30.1.0, SVG Export Plug-In . SVG Version: 2.1.1 Build 136)  -->
  <defs>
    <style>
      .st0 {
        fill: url(#linear-gradient1);
      }

      .st1 {
        fill: url(#linear-gradient);
      }
    </style>
    <linearGradient id="linear-gradient" x1="-1404.7" y1="-412.1" x2="-1404.7" y2="-398.2" gradientTransform="translate(-370 1417.9) rotate(90)" gradientUnits="userSpaceOnUse">
      <stop offset=".4" stop-color="#ef3c39"/>
      <stop offset="1" stop-color="#b1342f"/>
    </linearGradient>
    <linearGradient id="linear-gradient1" x1="12" y1="79.4" x2="30.1" y2="36.7" gradientTransform="translate(0 -34.1)" gradientUnits="userSpaceOnUse">
      <stop offset="0" stop-color="#ef3c39"/>
      <stop offset="1" stop-color="#ce242b"/>
    </linearGradient>
  </defs>
  <path class="st1" d="M22.8,2.5l-3.3,3.3c-.6.6-.6,1.7,0,2.3l15.8,15.8c.6.6,1.7.6,2.3,0l3.3-3.3c.6-.6.6-1.7,0-2.3L25.2,2.5c-.6-.6-1.7-.6-2.3,0Z"/>
  <path class="st0" d="M29,44V7c0-.4-.2-.8-.5-1.2l-3.3-3.3c-.6-.6-1.7-.6-2.3,0l-15.8,15.8c-.6.6-.6,1.7,0,2.3l3.3,3.3c.6.6,1.7.6,2.3,0l6.3-6.3v26.3c0,1.1.9,2,2,2h6c1.1,0,2-.9,2-2Z"/>
</svg>