<?xml version="1.0" encoding="UTF-8"?>
<svg id="Layer_1" xmlns="http://www.w3.org/2000/svg" version="1.1" xmlns:xlink="http://www.w3.org/1999/xlink" viewBox="0 0 48 48">
  <!-- Generator: Adobe Illustrator 30.1.0, SVG Export Plug-In . SVG Version: 2.1.1 Build 136)  -->
  <defs>
    <style>
      .st0 {
        fill: url(#linear-gradient1);
      }

      .st1 {
        fill: url(#linear-gradient);
      }
    </style>
    <linearGradient id="linear-gradient" x1="-1436.7" y1="-412.1" x2="-1436.7" y2="-398.2" gradientTransform="translate(-370 -1402) rotate(-90) scale(1 -1)" gradientUnits="userSpaceOnUse">
      <stop offset=".4" stop-color="#199ae0"/>
      <stop offset=".7" stop-color="#1898de"/>
      <stop offset=".8" stop-color="#1691d8"/>
      <stop offset=".9" stop-color="#1186cc"/>
      <stop offset="1" stop-color="#0a75bc"/>
      <stop offset="1" stop-color="#076cb3"/>
    </linearGradient>
    <linearGradient id="linear-gradient1" x1="12" y1="47.4" x2="30.1" y2="4.7" gradientTransform="translate(0 50) scale(1 -1)" gradientUnits="userSpaceOnUse">
      <stop offset="0" stop-color="#32bdef"/>
      <stop offset="1" stop-color="#1ea2e4"/>
    </linearGradient>
  </defs>
  <path class="st1" d="M25.2,45.5l15.8-15.8c.6-.6.6-1.7,0-2.3l-3.3-3.3c-.6-.6-1.7-.6-2.3,0l-15.8,15.8c-.6.6-.6,1.7,0,2.3l3.3,3.3c.6.6,1.7.6,2.3,0Z"/>
  <path class="st0" d="M27,2h-6c-1.1,0-2,.9-2,2v26.3l-6.3-6.3c-.6-.6-1.7-.6-2.3,0l-3.3,3.3c-.6.6-.6,1.7,0,2.3l15.8,15.8c.6.6,1.7.6,2.3,0l3.3-3.3c.3-.3.5-.7.5-1.2V4c0-1.1-.9-2-2-2Z"/>
</svg>