<?xml version="1.0" encoding="UTF-8"?>
<svg id="Layer_1" xmlns="http://www.w3.org/2000/svg" width="48" height="48" version="1.1" xmlns:xlink="http://www.w3.org/1999/xlink" viewBox="0 0 48 48">
  <!-- Generator: Adobe Illustrator 30.1.0, SVG Export Plug-In . SVG Version: 2.1.1 Build 136)  -->
  <defs>
    <linearGradient id="linear-gradient" x1="-1436.7495" y1="-412.071" x2="-1436.7495" y2="-398.237" gradientTransform="translate(-370 -1402) rotate(-90) scale(1 -1)" gradientUnits="userSpaceOnUse">
      <stop offset=".365" stop-color="#199ae0"/>
      <stop offset=".699" stop-color="#1898de"/>
      <stop offset=".819" stop-color="#1691d8"/>
      <stop offset=".905" stop-color="#1186cc"/>
      <stop offset=".974" stop-color="#0a75bc"/>
      <stop offset="1" stop-color="#076cb3"/>
    </linearGradient>
    <linearGradient id="linear-gradient1" x1="11.98352" y1="47.3778" x2="30.10052" y2="4.6728" gradientTransform="translate(0 50) scale(1 -1)" gradientUnits="userSpaceOnUse">
      <stop offset="0" stop-color="#32bdef"/>
      <stop offset="1" stop-color="#1ea2e4"/>
    </linearGradient>
  </defs>
  <path d="M25.168,45.516l15.849-15.849c.645-.645.645-1.69,0-2.335l-3.349-3.349c-.645-.645-1.69-.645-2.335,0l-15.849,15.849c-.645.645-.645,1.69,0,2.335l3.349,3.349c.644.645,1.69.645,2.335,0Z" fill="url(#linear-gradient)"/>
  <path d="M27,2h-6c-1.105,0-2,.895-2,2v26.316l-6.333-6.333c-.645-.645-1.69-.645-2.335,0l-3.349,3.349c-.645.645-.645,1.69,0,2.335l15.849,15.849c.645.645,1.69.645,2.335,0l3.349-3.349c.323-.322.484-.744.484-1.167V4c0-1.105-.895-2-2-2Z" fill="url(#linear-gradient1)"/>
</svg>