<?xml version="1.0" encoding="UTF-8"?>
<svg id="Layer_1" xmlns="http://www.w3.org/2000/svg" version="1.1" xmlns:xlink="http://www.w3.org/1999/xlink" viewBox="0 0 48 48">
  <!-- Generator: Adobe Illustrator 30.1.0, SVG Export Plug-In . SVG Version: 2.1.1 Build 136)  -->
  <defs>
    <style>
      .st0 {
        fill: url(#radial-gradient);
      }

      .st1 {
        fill: url(#radial-gradient1);
      }

      .st2 {
        fill: url(#radial-gradient2);
      }

      .st3 {
        fill: url(#radial-gradient3);
      }

      .st4 {
        fill: url(#linear-gradient);
      }
    </style>
    <linearGradient id="linear-gradient" x1="23.6" y1="1322.8" x2="24.2" y2="1336.5" gradientTransform="translate(0 -1320)" gradientUnits="userSpaceOnUse">
      <stop offset="0" stop-color="#77c043"/>
      <stop offset="1" stop-color="#00af4c"/>
    </linearGradient>
    <radialGradient id="radial-gradient" cx="40.8" cy="25.3" fx="40.8" fy="25.3" r="25.6" gradientTransform="translate(0 50) scale(1 -1)" gradientUnits="userSpaceOnUse">
      <stop offset="0" stop-color="#6d75d6"/>
      <stop offset=".1" stop-color="#8189de"/>
      <stop offset=".4" stop-color="#a7adec"/>
      <stop offset=".6" stop-color="#c3c7f6"/>
      <stop offset=".8" stop-color="#d3d6fd"/>
      <stop offset="1" stop-color="#d9dcff"/>
    </radialGradient>
    <radialGradient id="radial-gradient1" cx="80.9" cy="1401.9" fx="80.9" fy="1401.9" r="5.4" gradientTransform="translate(-55.8 -1316.5) scale(1)" gradientUnits="userSpaceOnUse">
      <stop offset=".3" stop-color="#6063e0" stop-opacity="0"/>
      <stop offset="1" stop-color="#6063e0"/>
    </radialGradient>
    <radialGradient id="radial-gradient2" cx="14.1" cy="7.4" fx="14.1" fy="7.4" r="3.7" gradientTransform="translate(0 50) scale(1 -1)" gradientUnits="userSpaceOnUse">
      <stop offset=".3" stop-color="#6063e0" stop-opacity="0"/>
      <stop offset="1" stop-color="#6063e0"/>
    </radialGradient>
    <radialGradient id="radial-gradient3" cx="37" cy="1360.4" fx="37" fy="1360.4" r="2.6" gradientTransform="translate(0 -1320)" gradientUnits="userSpaceOnUse">
      <stop offset=".3" stop-color="#6063e0" stop-opacity="0"/>
      <stop offset="1" stop-color="#6063e0"/>
    </radialGradient>
  </defs>
  <path class="st4" d="M29.4,11h-3.4v-7c0-.6-.4-1-1-1h-2c-.6,0-1,.4-1,1v7h-3.4c-.5,0-.8.7-.4,1l5,5c.5.5,1.2.5,1.7,0l5-5c.4-.4.1-1-.4-1Z"/>
  <path class="st0" d="M43,42H5c0-10.5,8.5-19,19-19s19,8.5,19,19Z"/>
  <path class="st1" d="M21,28c-1.7,0-3,1.3-3,3s1.3,3,3,3,3-1.3,3-3-1.3-3-3-3Z"/>
  <path class="st2" d="M15,42h-4c0-1.1.9-2,2-2s2,.9,2,2Z"/>
  <path class="st3" d="M36.5,38c-.8,0-1.5.7-1.5,1.5s.7,1.5,1.5,1.5,1.5-.7,1.5-1.5-.7-1.5-1.5-1.5Z"/>
</svg>