<?xml version="1.0" encoding="UTF-8"?>
<svg id="Layer_1" xmlns="http://www.w3.org/2000/svg" width="48" height="48" version="1.1" xmlns:xlink="http://www.w3.org/1999/xlink" viewBox="0 0 48 48">
  <!-- Generator: Adobe Illustrator 30.1.0, SVG Export Plug-In . SVG Version: 2.1.1 Build 136)  -->
  <defs>
    <radialGradient id="radial-gradient" cx="23.85" cy="1072.0375" fx="23.85" fy="1072.0375" r="20.4" gradientTransform="translate(0 -1030)" gradientUnits="userSpaceOnUse">
      <stop offset=".8" stop-color="#ffed54"/>
      <stop offset=".8" stop-color="#ffe649"/>
      <stop offset=".9" stop-color="#ffd22d"/>
      <stop offset="1" stop-color="#ffb300"/>
    </radialGradient>
    <linearGradient id="linear-gradient" x1="13.65" y1="1058.0375" x2="40.45" y2="1084.8375" gradientTransform="translate(0 -1030)" gradientUnits="userSpaceOnUse">
      <stop offset="0" stop-color="#fed100"/>
      <stop offset="1" stop-color="#e36001"/>
    </linearGradient>
    <linearGradient id="linear-gradient1" x1="18.05" y1="1041.95" x2="30.05" y2="1041.95" gradientTransform="translate(0 -1030)" gradientUnits="userSpaceOnUse">
      <stop offset="0" stop-color="#77c043"/>
      <stop offset="1" stop-color="#00af4c"/>
    </linearGradient>
  </defs>
  <g>
    <path d="M23.95,20.6375l1.4,1.4c.9.9,2.3,1.1,3.4.5l1.7-.9.9,1.8c.6,1.2,1.8,1.8,3.1,1.6l1.9-.3.3,1.9c.2,1.3,1.2,2.3,2.4,2.4l1.9.3-.3,1.9c-.2,1.3.4,2.5,1.6,3.1l1.8.9-.9,1.7c-.6,1.1-.4,2.5.5,3.4l1.4,1.4H2.95l1.4-1.4c.9-.9,1.1-2.3.5-3.4l-.9-1.7,1.8-.9c1.2-.6,1.8-1.8,1.6-3.1l-.3-1.9,1.9-.3c1.3-.2,2.3-1.2,2.4-2.4l.3-1.9,1.9.3c1.3.2,2.5-.4,3.1-1.6l.9-1.8,1.7.9c1.1.6,2.5.4,3.4-.5l1.4-1.4h-.1Z" fill="url(#radial-gradient)"/>
    <path d="M23.95,25.6375c-8.8,0-16,7.2-16,16h32c0-8.8-7.2-16-16-16Z" fill="url(#linear-gradient)"/>
  </g>
  <path d="M18.65,12.6375h3.4v4c0,.6.4,1,1,1h2c.6,0,1-.4,1-1v-4h3.4c.5,0,.8-.7.4-1l-5-5c-.5-.5-1.2-.5-1.7,0l-5,5c-.4.4-.1,1,.4,1h.1Z" fill="url(#linear-gradient1)"/>
</svg>